<svg xmlns="http://www.w3.org/2000/svg" width="472" height="40" viewBox="0 0 472 40" fill="none"><style>.ink{fill:#1b2433}@media (prefers-color-scheme: dark){.ink{fill:#f1f2f5}}</style><g transform="translate(182.58333333333331 0) scale(0.25477707006369427) translate(-195 -228)"><rect x="195" y="228" width="157" height="157" rx="18" fill="#e42238"/><g transform="translate(0,619) scale(0.1,-0.1)" fill="#f6f1e7" stroke="none"><path d="M3095 3659 c65 -24 132 -87 166 -156 34 -70 34 -197 -1 -268 -23 -47 -261 -305 -281 -305 -5 0 -9 51 -9 113 l0 113 61 59 c73 72 89 100 89 157 0 103 -108 170 -198 124 -26 -13 -231 -219 -318 -319 -50 -57 -76 -60 -104 -14 -23 37 -25 63 -8 121 14 50 278 325 343 358 85 44 173 50 260 17z"/><path d="M2884 3197 c26 -35 36 -253 16 -322 -16 -53 -203 -245 -275 -283 -69 -36 -186 -38 -260 -4 -136 62 -207 210 -171 352 21 83 39 109 135 205 l81 80 0 -41 c0 -23 11 -62 26 -92 l26 -52 -51 -55 c-75 -83 -80 -148 -17 -211 74 -74 131 -61 253 59 97 95 110 117 68 117 -92 0 -122 74 -57 138 20 21 58 62 85 91 57 63 103 69 141 18z"/></g></g><path class="ink" transform="translate(234.58333333333331 7.5) scale(0.03333333333333333) translate(-41 0)" d="M307 250L97 250L97 321C97 327 102 332 108 332L307 332C346 332 367 359 367 391L367 416C367 422 362 427 356 427L187 427C106 427 41 492 41 573L41 604C41 685 106 750 187 750L421 750C439 750 453 736 453 718L453 390C453 299 388 250 307 250ZM128 606L128 569C128 536 154 510 187 510L341 510C352 509 362 504 367 495L367 654C367 660 363 665 357 665L187 665C154 665 128 639 128 606ZM553 739C553 745 558 750 564 750L640 750L640 384C642 357 662 336 688 333L828 333C861 333 887 359 887 392L887 739C887 745 892 750 898 750L974 750L974 390C974 296 915 250 835 250L708 250C677 250 652 265 640 282L640 11C640 5 635 0 629 0L553 0ZM1217 750L1476 750L1476 678C1476 672 1471 667 1465 667L1217 667C1184 667 1158 641 1158 608L1158 519C1167 531 1181 538 1197 538L1471 538C1495 538 1497 524 1497 507L1497 392C1497 299 1432 250 1351 250L1217 250C1136 250 1071 299 1071 392L1071 604C1071 685 1136 750 1217 750ZM1217 332L1354 332C1393 332 1412 351 1412 391L1412 445C1412 451 1407 456 1401 456L1168 456C1162 455 1158 451 1158 445L1158 391C1158 351 1184 332 1217 332ZM1675 0L1599 0L1599 739C1599 745 1604 750 1610 750L1686 750L1686 11C1686 5 1681 0 1675 0Z"/></svg>
